<svg version="1.1" id="レイヤー_2_00000077315395963502502060000017195015512316228282_" xmlns="http://www.w3.org/2000/svg" x="0" y="0" width="60" height="60" xml:space="preserve"><style/><radialGradient id="SVGID_1_" cx="40.03" cy="28.46" r="29.153" gradientTransform="rotate(65.437 26.468 18.901)" gradientUnits="userSpaceOnUse"><stop offset="0" stop-color="#fdd78a"/><stop offset="1" stop-color="#bd8e4d"/></radialGradient><path d="M38.8 22.2c-.9-3.7-2.2-8.2.7-11.3-5.7-1.7-12.4 1.2-14.6 6.7-.6 1.4-.9 2.9-.8 4.4 0 .8 0 1.1.1 1.9.7 3.9 2.2 8.2-.7 11.3 5.7 1.7 12.4-1.2 14.6-6.7.5-1.3.8-2.9.8-4.4-.1-.7-.1-1.1-.1-1.9z" fill="url(#SVGID_1_)"/><radialGradient id="SVGID_00000008143738162617261190000008609131085781653907_" cx="49.041" cy="47.461" r="29.005" gradientTransform="rotate(45.42 87.954 17.776)" gradientUnits="userSpaceOnUse"><stop offset=".006" stop-color="#fff"/><stop offset="1" stop-color="#e35c88"/></radialGradient><path d="M31 18.1c3.3-1.5 7.3-3.2 8.5-7.2 3.6 3.3 4.1 9.9.7 14.9-.8 1.2-1.9 2.3-3.1 3.1-.6.4-.9.6-1.5 1.1-3.3 1.8-7.3 3.2-8.5 7.2-3.6-3.3-4.1-9.9-.7-14.9.8-1.2 1.9-2.3 3.1-3.1.6-.5.9-.7 1.5-1.1z" fill="url(#SVGID_00000008143738162617261190000008609131085781653907_)"/><radialGradient id="SVGID_00000047057080776097343740000016214718630956009604_" cx="20.344" cy="12.009" r="39.216" gradientTransform="matrix(1 0 0 -1 0 59.89)" gradientUnits="userSpaceOnUse"><stop offset="0" stop-color="#dfff8a"/><stop offset="1" stop-color="#84bd4d"/></radialGradient><path d="M19.2 32.9c1.6 4.6 3.8 10 1.1 15 6.6.4 13.4-5.5 15-13.4.3-1.9.4-4 .1-5.9-.2-1-.2-1.5-.4-2.4-1.5-4.9-3.8-10-1.1-15-6.6-.4-13.4 5.5-15 13.4-.3 1.9-.4 4-.1 5.9.2.9.2 1.4.4 2.4z" fill="url(#SVGID_00000047057080776097343740000016214718630956009604_)"/><radialGradient id="SVGID_00000067233890921038647740000003731985876701989281_" cx="41.207" cy="45.451" r="39.415" gradientTransform="matrix(1 0 0 -1 0 59.89)" gradientUnits="userSpaceOnUse"><stop offset="0" stop-color="#d6b78b"/><stop offset="1" stop-color="#b0783f"/></radialGradient><path d="M33.9 40.6c-5.1 1-11.3 1.9-13.5 7.3-5.3-6.1-5.5-15.9.1-21.8 1.4-1.4 3-2.6 4.9-3.4.9-.4 1.4-.6 2.4-1 5.2-1.3 11.3-1.9 13.5-7.3 5.3 6.1 5.5 15.9-.1 21.8-1.4 1.4-3 2.6-4.9 3.4-1 .4-1.5.6-2.4 1z" fill="url(#SVGID_00000067233890921038647740000003731985876701989281_)"/></svg>