<svg version="1.1" id="レイヤー_2_00000077315395963502502060000017195015512316228282_" xmlns="http://www.w3.org/2000/svg" x="0" y="0" width="60" height="60" xml:space="preserve"><style/><radialGradient id="SVGID_1_" cx="-1290.7" cy="-590.402" r="12.678" gradientTransform="scale(-1 1) rotate(-69.176 -189.746 -1197.74)" gradientUnits="userSpaceOnUse"><stop offset="0" stop-color="#dfff8a"/><stop offset="1" stop-color="#84bd4d"/></radialGradient><path d="M20.8 42.3c1.4.7 2.9 2.2 4.6 1.4-.1 1.1-.5 2.2-1.3 3.1-.2.2-.5.4-.6.6-1.1.9-2.6 1.3-4 1-.3-.1-.7-.1-1-.3-1.7-.7-3.4-2.8-5.4-1.9.1-1.1.5-2.2 1.3-3.1.2-.2.5-.4.6-.6 1.1-.9 2.6-1.3 4-1 .3.1.6.2 1 .3.3.1.5.3.8.5z" fill="url(#SVGID_1_)"/><radialGradient id="SVGID_00000168826246385157789840000015735214112546517656_" cx="-168.535" cy="-1359.633" r="12.799" gradientTransform="matrix(.866 -.5 -.4498 -.7792 -445.9 -1109.908)" gradientUnits="userSpaceOnUse"><stop offset="0" stop-color="#fff"/><stop offset="1" stop-color="#f0b4c8"/></radialGradient><path d="M20.9 33.1c0 1.1-.4 2-.4 2s-1 0-1.9-.6c-.3 1.4-.5 3.5.7 5.5 2.1 3.6 6.2 3.7 6.2 3.7s1.9-3.6-.1-7.2c-1.3-2.1-3.2-3-4.5-3.4z" fill="url(#SVGID_00000168826246385157789840000015735214112546517656_)"/><radialGradient id="SVGID_00000049901292621335979310000013497539738971206079_" cx="949.475" cy="-246.788" r="12.799" gradientTransform="matrix(.7431 .6691 .602 -.6686 -523.897 -765.103)" gradientUnits="userSpaceOnUse"><stop offset="0" stop-color="#fff"/><stop offset="1" stop-color="#f0ccd8"/></radialGradient><path d="M34.1 36.1c-1 .4-2 .2-2 .2s-.3-.9 0-2c-1.4.1-3.5.6-5.1 2.4-2.7 3.1-1.6 7-1.6 7s4.1.7 6.8-2.3c1.6-1.8 1.9-3.9 1.9-5.3z" fill="url(#SVGID_00000049901292621335979310000013497539738971206079_)"/><radialGradient id="SVGID_00000071530753098180947200000010402252772664852096_" cx="399.034" cy="1226.126" r="12.798" gradientTransform="matrix(-.4067 .9135 .8219 .3659 -809.577 -764.805)" gradientUnits="userSpaceOnUse"><stop offset="0" stop-color="#fff"/><stop offset="1" stop-color="#f0b4c8"/></radialGradient><path d="M35.3 49.6c-.7-.9-.8-1.8-.8-1.8s.8-.5 1.9-.6c-.5-1.3-1.7-3.1-3.8-4.1-3.8-1.7-7.2.6-7.2.6s.6 4.1 4.3 5.8c2.2.9 4.3.6 5.6.1z" fill="url(#SVGID_00000071530753098180947200000010402252772664852096_)"/><radialGradient id="SVGID_00000030454096379949467380000007894308632572932736_" cx="-1034.49" cy="961.203" r="12.797" gradientTransform="matrix(-.9945 -.1045 -.094 .8948 -914.21 -913.109)" gradientUnits="userSpaceOnUse"><stop offset="0" stop-color="#fff"/><stop offset="1" stop-color="#e393af"/></radialGradient><path d="M22.9 54.9c.6-.9 1.5-1.3 1.5-1.3s.8.6 1.2 1.6c1.1-.9 2.4-2.5 2.7-4.9.4-4.1-2.8-6.6-2.8-6.6s-3.7 1.8-4.1 5.9c-.4 2.4.6 4.2 1.5 5.3z" fill="url(#SVGID_00000030454096379949467380000007894308632572932736_)"/><radialGradient id="SVGID_00000171710177398431937770000001406695981640737432_" cx="-64.104" cy="295.792" r="12.79" gradientTransform="matrix(.9684 .2494 .2244 -.8713 30.44 277.243)" gradientUnits="userSpaceOnUse"><stop offset="0" stop-color="#fff"/><stop offset="1" stop-color="#f0b4c8"/></radialGradient><path d="M36 3.9c-.7.8-1.6 1.1-1.6 1.1s-.7-.7-.9-1.8c-1.2.8-2.8 2.1-3.4 4.4-1 4 1.8 7 1.8 7s3.9-1.2 5-5.2c.5-2.3-.2-4.3-.9-5.5z" fill="url(#SVGID_00000171710177398431937770000001406695981640737432_)"/><radialGradient id="SVGID_00000093148774340621870350000003876751075674298512_" cx="-434.928" cy="452.579" r="12.789" gradientTransform="matrix(.062 .9981 .898 -.05578 -336.148 473.254)" gradientUnits="userSpaceOnUse"><stop offset="0" stop-color="#fff"/><stop offset="1" stop-color="#f0b4c8"/></radialGradient><path d="M43.4 15.2c-1-.5-1.6-1.2-1.6-1.2s.5-.8 1.4-1.4c-1.1-.9-2.9-2-5.3-1.8-4.1.3-6.1 3.9-6.1 3.9s2.4 3.4 6.5 3.1c2.5-.2 4.1-1.5 5.1-2.6z" fill="url(#SVGID_00000093148774340621870350000003876751075674298512_)"/><radialGradient id="SVGID_00000075147245404630717480000012097001396645565352_" cx="-682.861" cy="32.254" r="12.79" gradientTransform="matrix(-.93 .3674 .3305 .8368 -609.617 249.142)" gradientUnits="userSpaceOnUse"><stop offset="0" stop-color="#fff"/><stop offset="1" stop-color="#f0ccd8"/></radialGradient><path d="M34.8 25.7c.1-1.1.7-1.9.7-1.9s.9.2 1.8.9c.5-1.3 1-3.4.1-5.6-1.5-3.8-5.6-4.6-5.6-4.6s-2.4 3.3-.9 7.1c.9 2.4 2.6 3.5 3.9 4.1z" fill="url(#SVGID_00000075147245404630717480000012097001396645565352_)"/><radialGradient id="SVGID_00000066506493206010418560000007182475690756572067_" cx="-344.792" cy="-412.423" r="12.79" gradientTransform="matrix(-.6368 -.771 -.6936 .573 -482.584 -7.623)" gradientUnits="userSpaceOnUse"><stop offset="0" stop-color="#fff"/><stop offset="1" stop-color="#f0b4c8"/></radialGradient><path d="M22.2 20.9c1.1-.2 2 .1 2 .1s.1 1-.3 2c1.4.1 3.5-.1 5.3-1.6 3.2-2.6 2.6-6.7 2.6-6.7s-3.9-1.3-7.1 1.3c-1.7 1.4-2.3 3.4-2.5 4.9z" fill="url(#SVGID_00000066506493206010418560000007182475690756572067_)"/><radialGradient id="SVGID_00000137105937348674085240000002729424740843434631_" cx="138.009" cy="-331.023" r="12.789" gradientTransform="matrix(.5365 -.844 -.7593 -.4826 -303.135 -34.831)" gradientUnits="userSpaceOnUse"><stop offset="0" stop-color="#fff"/><stop offset="1" stop-color="#e393af"/></radialGradient><path d="M23 7.3c.5 1 .5 1.9.5 1.9s-.9.4-2 .3c.3 1.4 1.2 3.3 3.2 4.6 3.5 2.2 7.2.4 7.2.4s0-4.1-3.4-6.3C26.4 7 24.4 7.1 23 7.3z" fill="url(#SVGID_00000137105937348674085240000002729424740843434631_)"/><radialGradient id="SVGID_00000159435923625510662580000003797162726208736926_" cx="-417.697" cy="110.746" r="15.091" gradientTransform="matrix(.9601 -.2797 -.2517 -.8638 442.886 -3.105)" gradientUnits="userSpaceOnUse"><stop offset="0" stop-color="#fff"/><stop offset="1" stop-color="#f0b4c8"/></radialGradient><path d="M15.5 17.6c-.3 1.3-1 2.1-1 2.1s-1.1-.3-2-1.2c-.8 1.5-1.5 3.9-.7 6.5 1.4 4.6 6 6 6 6s3.2-3.6 1.9-8.3c-.8-2.6-2.7-4.2-4.2-5.1z" fill="url(#SVGID_00000159435923625510662580000003797162726208736926_)"/><radialGradient id="SVGID_00000148620509572870333980000009379630994066719368_" cx="-383.874" cy="23.226" r="15.09" gradientTransform="matrix(.5627 .8267 .7438 -.5063 227.654 352.55)" gradientUnits="userSpaceOnUse"><stop offset="0" stop-color="#fff"/><stop offset="1" stop-color="#f0b4c8"/></radialGradient><path d="M29.8 24.7c-1.3.1-2.3-.3-2.3-.3s0-1.1.6-2.3c-1.7-.3-4.1-.3-6.5 1.3-4 2.7-3.8 7.6-3.8 7.6s4.5 2 8.5-.8c2.2-1.5 3.1-3.8 3.5-5.5z" fill="url(#SVGID_00000148620509572870333980000009379630994066719368_)"/><radialGradient id="SVGID_00000035516059442978008810000016021093660440633250_" cx="-297.692" cy="-44.885" r="15.091" gradientTransform="matrix(-.6123 .7906 .7113 .5509 -121.893 299.395)" gradientUnits="userSpaceOnUse"><stop offset="0" stop-color="#fff"/><stop offset="1" stop-color="#f0ccd8"/></radialGradient><path d="M27.5 40.5c-.5-1.2-.4-2.3-.4-2.3s1.1-.4 2.4-.2c-.3-1.7-1-4-3.2-5.7-3.8-3-8.4-1.3-8.4-1.3s-.5 4.8 3.3 7.8c2.1 1.8 4.6 1.9 6.3 1.7z" fill="url(#SVGID_00000035516059442978008810000016021093660440633250_)"/><radialGradient id="SVGID_00000060730676206734872610000016381304589134394779_" cx="-157.806" cy="-27.564" r="15.091" gradientTransform="matrix(-.9411 -.338 -.3041 .8468 -143.638 13.722)" gradientUnits="userSpaceOnUse"><stop offset="0" stop-color="#fff"/><stop offset="1" stop-color="#f0b4c8"/></radialGradient><path d="M11.7 43.2c1-.9 2.1-1.1 2.1-1.1s.7.9.9 2.2c1.5-.8 3.5-2.2 4.5-4.9 1.6-4.6-1.4-8.4-1.4-8.4s-4.8 1-6.4 5.6c-1 2.7-.4 5.1.3 6.6z" fill="url(#SVGID_00000060730676206734872610000016381304589134394779_)"/><radialGradient id="SVGID_00000044178580730207295080000005902762199455417775_" cx="-131.539" cy="-12.831" r="15.119" gradientTransform="matrix(.0306 -.9996 -.8993 -.02752 -3.238 -101.224)" gradientUnits="userSpaceOnUse"><stop offset="0" stop-color="#fff"/><stop offset="1" stop-color="#e393af"/></radialGradient><path d="M4.3 29.1c1.2.6 1.7 1.6 1.7 1.6s-.6.9-1.8 1.5c1.2 1.2 3.2 2.6 6 2.7 4.8.1 7.5-3.9 7.5-3.9s-2.4-4.2-7.3-4.3c-2.7-.1-4.8 1.2-6.1 2.4z" fill="url(#SVGID_00000044178580730207295080000005902762199455417775_)"/><radialGradient id="SVGID_00000076565919674277677470000017594260202487799970_" cx="-1071.781" cy="-963.943" r="17.951" gradientTransform="matrix(-.9868 -.1616 .1454 -.8879 -875.333 -1010.026)" gradientUnits="userSpaceOnUse"><stop offset="0" stop-color="#fff"/><stop offset="1" stop-color="#f0b4c8"/></radialGradient><path d="M40.4 18.8c.5 1.5 1.5 2.4 1.5 2.4s1.2-.5 2.2-1.8c1.1 1.7 2.4 4.3 1.8 7.6-.9 5.7-6.3 7.9-6.3 7.9s-4.3-3.8-3.4-9.5c.5-3.3 2.5-5.4 4.2-6.6z" fill="url(#SVGID_00000076565919674277677470000017594260202487799970_)"/><radialGradient id="SVGID_00000050661734417969369200000013237328404946804393_" cx="335.428" cy="-998.954" r="17.951" gradientTransform="matrix(-.4586 .8886 -.7995 -.4127 -619.45 -682.794)" gradientUnits="userSpaceOnUse"><stop offset="0" stop-color="#fff"/><stop offset="1" stop-color="#f0b4c8"/></radialGradient><path d="M24.5 29.2c1.6 0 2.7-.7 2.7-.7s-.1-1.3-1-2.6c1.9-.6 4.8-.9 7.8.6 5.1 2.6 5.6 8.4 5.6 8.4s-5 3-10.1.3c-3-1.5-4.4-4.1-5-6z" fill="url(#SVGID_00000050661734417969369200000013237328404946804393_)"/><radialGradient id="SVGID_00000141413234914321572260000016164066137369336207_" cx="800.543" cy="402.043" r="17.95" gradientTransform="matrix(.7034 .7109 -.6396 .6328 -277.75 -777.298)" gradientUnits="userSpaceOnUse"><stop offset="0" stop-color="#fff"/><stop offset="1" stop-color="#f0ccd8"/></radialGradient><path d="M29.5 47.5c.5-1.5.2-2.8.2-2.8s-1.3-.3-2.8.1c.1-2 .6-4.9 3-7.2 4.1-4.1 9.7-2.7 9.7-2.7s1.3 5.6-2.8 9.7c-2.4 2.3-5.3 2.9-7.3 2.9z" fill="url(#SVGID_00000141413234914321572260000016164066137369336207_)"/><radialGradient id="SVGID_00000116231086700378855310000008623692333033691034_" cx="-197.712" cy="1274.242" r="17.98" gradientTransform="matrix(.8934 -.4493 .4042 .8038 -291.617 -1063.816)" gradientUnits="userSpaceOnUse"><stop offset="0" stop-color="#fff"/><stop offset="1" stop-color="#f0b4c8"/></radialGradient><path d="M48.5 48.4c-1.3-.9-2.6-1-2.6-1s-.7 1.2-.7 2.7c-1.9-.7-4.5-2.1-6-5.1-2.6-5.1.4-10.1.4-10.1s5.8.5 8.3 5.7c1.6 3 1.2 5.9.6 7.8z" fill="url(#SVGID_00000116231086700378855310000008623692333033691034_)"/><radialGradient id="SVGID_00000084507555613685461460000011654746671902279857_" cx="-1255.093" cy="349.414" r="17.979" gradientTransform="matrix(-.1513 -.9885 .8894 -.1361 -445.193 -1160.644)" gradientUnits="userSpaceOnUse"><stop offset="0" stop-color="#fff"/><stop offset="1" stop-color="#e393af"/></radialGradient><path d="M55.2 30.6c-1.2.9-1.8 2.2-1.8 2.2s.9 1 2.4 1.5c-1.2 1.6-3.4 3.6-6.7 4.1-5.7.9-9.5-3.5-9.5-3.5s2.3-5.3 8-6.2c3.3-.5 5.9.8 7.6 1.9z" fill="url(#SVGID_00000084507555613685461460000011654746671902279857_)"/></svg>