<svg version="1.1" id="レイヤー_2_00000077315395963502502060000017195015512316228282_" xmlns="http://www.w3.org/2000/svg" x="0" y="0" width="60" height="60" xml:space="preserve"><style/><radialGradient id="SVGID_1_" cx="-2658.652" cy="1006.268" r="91.105" gradientTransform="matrix(-.3202 -.146 -.146 .3202 -685.753 -658.11)" gradientUnits="userSpaceOnUse"><stop offset="0" stop-color="#a4e368"/><stop offset="1" stop-color="#36b036"/></radialGradient><path d="M18 34.3C22.3 24.8 31.9 23 31.9 23s5 8.4.6 17.9c-4.3 9.5-13.9 11.3-13.9 11.3s-4.9-8.3-.6-17.9z" fill="url(#SVGID_1_)"/><radialGradient id="SVGID_00000169515846685962762410000018287624252485002654_" cx="328.747" cy="-123.661" r="60.124" gradientTransform="scale(.3519 -.3519) rotate(22.63 67.923 -783.521)" gradientUnits="userSpaceOnUse"><stop offset="0" stop-color="#a4e368"/><stop offset="1" stop-color="#36b036"/></radialGradient><path d="M27.9 38.1c-1.1 2.3-3.5 5-2.2 7.8-1.9 0-3.7-.8-5.2-2-.3-.3-.7-.7-1.1-1-1.6-1.8-2.4-4.2-2-6.7.2-.5.2-1.1.4-1.6 1.1-2.9 4.4-5.8 2.9-9.1 1.9 0 3.7.8 5.2 2 .3.3.7.7 1.1 1 1.6 1.8 2.4 4.2 1.9 6.7-.2.5-.2.9-.4 1.6-.1.5-.4.8-.6 1.3z" fill="url(#SVGID_00000169515846685962762410000018287624252485002654_)"/><radialGradient id="SVGID_00000090979034284961062600000003338079237931410342_" cx="-476.213" cy="-208.28" r="67.641" gradientTransform="matrix(-.3246 -.1359 -.1359 .3246 -170.463 34.727)" gradientUnits="userSpaceOnUse"><stop offset="0" stop-color="#dfff8a"/><stop offset="1" stop-color="#84bd4d"/></radialGradient><path d="M11.5 18.6c3-7.2 10.1-8.7 10.1-8.7s3.9 6.1.9 13.3-10.1 8.7-10.1 8.7-3.9-6.2-.9-13.3z" fill="url(#SVGID_00000090979034284961062600000003338079237931410342_)"/><radialGradient id="SVGID_00000175313249495433640310000002590859706529730442_" cx="-210.552" cy="381.045" r="60.073" gradientTransform="scale(-.3519 .3519) rotate(67.757 82.412 281.12)" gradientUnits="userSpaceOnUse"><stop offset="0" stop-color="#a4e368"/><stop offset="1" stop-color="#36b036"/></radialGradient><path d="M30.8 17.7C24.4 15.1 23 8.8 23 8.8s5.4-3.5 11.8-.9 7.8 8.9 7.8 8.9-5.4 3.5-11.8.9z" fill="url(#SVGID_00000175313249495433640310000002590859706529730442_)"/><radialGradient id="SVGID_00000177450437525057499860000007312259156775529640_" cx="-354.773" cy="679.03" r="60.065" gradientTransform="rotate(39.993 211.77 321.554) scale(.3519)" gradientUnits="userSpaceOnUse"><stop offset="0" stop-color="#a4e368"/><stop offset="1" stop-color="#36b036"/></radialGradient><path d="M17.8 37.2c4.4-5.3 2.7-11.5 2.7-11.5s-6.4-.6-10.8 4.7S7 41.9 7 41.9s6.4.6 10.8-4.7z" fill="url(#SVGID_00000177450437525057499860000007312259156775529640_)"/><radialGradient id="SVGID_00000140720507089141516150000007163441504334558624_" cx="327.247" cy="-240.678" r="60.125" gradientTransform="matrix(.2867 -.204 -.204 -.2867 -116.321 28.26)" gradientUnits="userSpaceOnUse"><stop offset="0" stop-color="#dfff8a"/><stop offset="1" stop-color="#84bd4d"/></radialGradient><path d="M37.7 40.3c-.6 2.5-2.3 5.7-.4 8.1-1.9.4-3.7.1-5.5-.8-.4-.2-.9-.6-1.2-.8-2-1.4-3.3-3.6-3.4-6.1.1-.5-.1-1.1 0-1.7.4-3.1 3.1-6.7.8-9.5 1.9-.4 3.7-.1 5.5.8.4.2.9.6 1.2.8 2 1.4 3.3 3.6 3.4 6.1-.1.5 0 1 0 1.7-.1.5-.3.9-.4 1.4z" fill="url(#SVGID_00000140720507089141516150000007163441504334558624_)"/><radialGradient id="SVGID_00000060716291142931196560000002392321515087724959_" cx="2916.565" cy="1621.852" r="60.13" gradientTransform="matrix(-.0213 .3512 .3512 .0213 -451.265 -1022.99)" gradientUnits="userSpaceOnUse"><stop offset="0" stop-color="#dfff8a"/><stop offset="1" stop-color="#84bd4d"/></radialGradient><path d="M41.6 38.3c-1.6-2-2.9-5.4-6-5.4.9-1.7 2.3-2.9 4.1-3.8.4-.2 1-.3 1.4-.5 2.3-.6 4.8-.3 6.9 1.2.4.4.9.6 1.3 1 2.2 2.2 3.3 6.6 6.9 6.6-.9 1.7-2.3 2.9-4.1 3.8-.4.2-1 .3-1.4.5-2.3.6-4.8.3-6.9-1.2-.4-.4-.7-.6-1.3-1-.4-.4-.5-.8-.9-1.2z" fill="url(#SVGID_00000060716291142931196560000002392321515087724959_)"/><radialGradient id="SVGID_00000171689009692172620380000007634227672255015574_" cx="-583.582" cy="-167.064" r="44.622" gradientTransform="matrix(-.3221 .1416 -.1416 -.3221 -175.239 59.598)" gradientUnits="userSpaceOnUse"><stop offset="0" stop-color="#a4e368"/><stop offset="1" stop-color="#36b036"/></radialGradient><path d="M38.4 41.6c1.8.6 4.5.7 5.3 2.8.9-1 1.5-2.4 1.6-3.8v-1.1c-.2-1.8-1-3.4-2.6-4.5-.4-.1-.7-.5-1.1-.6-2.1-.9-5.4-.6-6.3-3.1-.9 1-1.5 2.4-1.6 3.8v1.1c.2 1.8 1 3.4 2.6 4.5.4.1.6.3 1.1.6.3.1.6.1 1 .3z" fill="url(#SVGID_00000171689009692172620380000007634227672255015574_)"/><radialGradient id="SVGID_00000114046479021154240490000002134356662398109871_" cx="418.341" cy="852.727" r="60.529" gradientTransform="matrix(.2296 -.2666 .2666 .2296 -277.494 -54.953)" gradientUnits="userSpaceOnUse"><stop offset="0" stop-color="#dfff8a"/><stop offset="1" stop-color="#84bd4d"/></radialGradient><path d="M39.2 17.3c-2.6-.8-5.6-.5-8.3-1-.5 0-1.1.1-1.6-.2.2.4-.1.7-.2 1.1-.3 5.1 2.9 9.6 8 10.4 2.7.3 5.2.4 7.7.8.5 0 1.1-.1 1.6.1-.2-.4.1-.7.2-1.1.4-4.6-2.6-9.2-7.4-10.1z" fill="url(#SVGID_00000114046479021154240490000002134356662398109871_)"/><radialGradient id="SVGID_00000180357446462074066740000011104146702336944804_" cx="-145.619" cy="700.726" r="60.525" gradientTransform="matrix(-.3221 .1416 .1416 .3221 -107.683 -163.88)" gradientUnits="userSpaceOnUse"><stop offset="0" stop-color="#a4e368"/><stop offset="1" stop-color="#36b036"/></radialGradient><path d="M29 31.3c0-2.8 1.1-5.5 1.4-8.2.2-.5.4-1 .3-1.6.3.3.7.1 1.1.1 4.9 1.2 8.3 5.6 7.6 10.7-.5 2.7-1.1 5.1-1.5 7.6-.2.5-.4 1-.3 1.6-.3-.3-.7-.1-1.1-.1-4.6-1.1-8.1-5.2-7.5-10.1z" fill="url(#SVGID_00000180357446462074066740000011104146702336944804_)"/><radialGradient id="SVGID_00000087395895122934022750000004446369481290462346_" cx="-306.654" cy="603.868" r="53.878" gradientTransform="scale(-.352 .352) rotate(14.498 1789.468 1269.17)" gradientUnits="userSpaceOnUse"><stop offset="0" stop-color="#a4e368"/><stop offset="1" stop-color="#36b036"/></radialGradient><path d="M18.9 25.3c.4-2.4 1.8-4.7 2.4-7 .2-.4.5-.8.5-1.4.3.3.6.2 1 .3 4.2 1.7 6.5 6.1 5.2 10.5-.8 2.3-1.7 4.3-2.4 6.4-.2.4-.5.8-.5 1.4-.3-.3-.6-.2-1-.3-3.9-1.6-6.4-5.7-5.2-9.9z" fill="url(#SVGID_00000087395895122934022750000004446369481290462346_)"/><radialGradient id="SVGID_00000014601555036967352130000008143731642265243322_" cx="-182.002" cy="206.498" r="46.024" gradientTransform="matrix(-.2745 .2202 .2202 .2745 -63.864 9.722)" gradientUnits="userSpaceOnUse"><stop offset="0" stop-color="#a4e368"/><stop offset="1" stop-color="#36b036"/></radialGradient><path d="M23.3 22.5c-3.3-4.1-1.9-8.9-1.9-8.9s4.9-.3 8.2 3.8 1.9 8.9 1.9 8.9-4.9.4-8.2-3.8z" fill="url(#SVGID_00000014601555036967352130000008143731642265243322_)"/></svg>