<svg version="1.1" id="レイヤー_2_00000077315395963502502060000017195015512316228282_" xmlns="http://www.w3.org/2000/svg" x="0" y="0" width="60" height="60" xml:space="preserve"><style/><path d="M9.1 48c.5.5 1.3.5 1.9.1.6-.5 1.4-.8 2.2-.8l34.7-2.9c.7-.1 1.2-.6 1.3-1.3.1-.8-.6-1.5-1.4-1.5L17 43.3c-1.1.1-1.8-1.2-1.1-2.1l5.1-7.1c.6-.8 1.4-1.3 2.3-1.5l16-3.6c1-.2 1.8-.7 2.6-1.3l9.9-8.7c.6-.5.7-1.5.2-2.1s-1.5-.7-2.1-.2L40 24.2c-.7.5-1.5.9-2.3 1.1l-10.1 2.2c-.9.2-1.5-.8-1-1.5L41.5 5.5c.5-.6.4-1.5-.3-2.1-.6-.5-1.6-.4-2.2.2l-31.6 41c-.4.6-.3 1.4.2 1.9L9.1 48z" fill="#b78092"/><radialGradient id="SVGID_1_" cx="-8211.753" cy="-1272.241" r="54.654" gradientTransform="matrix(-.0031 -.1238 -.1238 .0031 -162.516 -966.153)" gradientUnits="userSpaceOnUse"><stop offset="0" stop-color="#dfff8a"/><stop offset="1" stop-color="#84bd4d"/></radialGradient><path d="M25 47.4c.2.9.4 1.9 1.3 2.3-1 .9-2.7 1-3.7.1-.2-.2-.5-.5-.6-.8l-.2-.4c-.3-.9-.4-1.9-1.3-2.3 1-.9 2.7-1 3.7-.1.2.2.5.5.6.8.1.2.1.3.2.4z" fill="url(#SVGID_1_)"/><radialGradient id="SVGID_00000150099899099787316010000005169980073273984147_" cx="-1811.188" cy="8429.718" r="54.652" gradientTransform="rotate(-24.509 -2386.182 -30.734) scale(.12375)" gradientUnits="userSpaceOnUse"><stop offset="0" stop-color="#dfff8a"/><stop offset="1" stop-color="#84bd4d"/></radialGradient><path d="M23.4 46.2c-.9.2-1.9.5-2.6-.2-.4 1.3.3 2.9 1.6 3.4.3.1.7.2 1 .2h.4c.9-.2 1.9-.5 2.6.2.4-1.3-.3-2.9-1.6-3.4-.3-.1-.7-.2-1-.2h-.4z" fill="url(#SVGID_00000150099899099787316010000005169980073273984147_)"/><radialGradient id="SVGID_00000083067607374579841110000000650661982703750326_" cx="-8826.961" cy="1906.961" r="54.654" gradientTransform="matrix(-.0661 -.1047 -.1047 .0661 -377.487 -1020.207)" gradientUnits="userSpaceOnUse"><stop offset="0" stop-color="#dfff8a"/><stop offset="1" stop-color="#84bd4d"/></radialGradient><path d="M10.8 28.5c.6.6 1.3 1.5 2.3 1.3-.4 1.3-1.8 2.3-3.2 2-.3-.1-.7-.2-.9-.4-.1-.1-.2-.2-.4-.3-.7-.6-1.3-1.5-2.3-1.3.4-1.3 1.8-2.3 3.2-2 .3.1.7.2.9.4.1.2.2.2.4.3z" fill="url(#SVGID_00000083067607374579841110000000650661982703750326_)"/><radialGradient id="SVGID_00000070083934080135670690000009942677302112432044_" cx="-4977.701" cy="7748.368" r="54.652" gradientTransform="rotate(-55.327 -1187.887 -105.76) scale(.12378)" gradientUnits="userSpaceOnUse"><stop offset="0" stop-color="#dfff8a"/><stop offset="1" stop-color="#84bd4d"/></radialGradient><path d="M8.8 28.3c-.6.6-1.4 1.4-2.3 1.2.3 1.3 1.7 2.3 3.1 2.1.3-.1.7-.2 1-.4.1-.1.2-.1.4-.2.7-.6 1.4-1.4 2.3-1.2-.3-1.3-1.7-2.3-3.1-2.1-.3.1-.7.2-1 .4-.2.1-.3.1-.4.2z" fill="url(#SVGID_00000070083934080135670690000009942677302112432044_)"/><radialGradient id="SVGID_00000144301595905069435300000012920005181607161739_" cx="-2055.519" cy="-4276.997" r="54.654" gradientTransform="matrix(.1127 -.05132 -.05132 -.1127 56.392 -576.997)" gradientUnits="userSpaceOnUse"><stop offset="0" stop-color="#dfff8a"/><stop offset="1" stop-color="#84bd4d"/></radialGradient><path d="M45.1 15.1c-.7.5-1.6 1.1-1.6 2.1-1.3-.6-2-2.1-1.5-3.4.1-.3.3-.6.5-.9l.3-.3c.7-.6 1.6-1.1 1.6-2.1 1.3.6 2 2.1 1.5 3.4-.1.3-.3.6-.5.9l-.3.3z" fill="url(#SVGID_00000144301595905069435300000012920005181607161739_)"/><radialGradient id="SVGID_00000080889939241600400050000005354110608802547377_" cx="3366.368" cy="3940.6" r="54.652" gradientTransform="rotate(42.443 835.9 -228.042) scale(.12379)" gradientUnits="userSpaceOnUse"><stop offset="0" stop-color="#dfff8a"/><stop offset="1" stop-color="#84bd4d"/></radialGradient><path d="M45.6 13.2c-.5-.7-1.2-1.6-.9-2.5-1.4.2-2.5 1.4-2.5 2.8 0 .3.1.7.2 1l.2.4c.5.8 1.2 1.6.9 2.5 1.4-.2 2.5-1.4 2.5-2.8 0-.3-.1-.7-.2-1-.1-.2-.2-.3-.2-.4z" fill="url(#SVGID_00000080889939241600400050000005354110608802547377_)"/><radialGradient id="SVGID_00000086685233362167521140000000003474158623790208_" cx="3101.539" cy="962.279" r="33.866" gradientTransform="scale(.2 -.2) rotate(-41.148 245.963 4275.833)" gradientUnits="userSpaceOnUse"><stop offset="0" stop-color="#e393af"/><stop offset=".512" stop-color="#fff"/></radialGradient><path d="M49 23.2c-.4-.5-.5-1.1-.5-1.1s.5-.3 1.1-.4c-.3-.8-1-1.8-2.3-2.4-.4-.2-.7-.2-1-.3.3-.2.6-.4.8-.7.9-1.1 1.1-2.3 1-3.1-.6.2-1.2.1-1.2.1s-.2-.5 0-1.2c-.8.1-2 .4-3 1.5-.3.3-.4.6-.6.9-.1-.3-.2-.7-.4-1-.7-1.2-1.8-1.7-2.7-2 0 .7-.2 1.2-.2 1.2s-.6 0-1.1-.4c-.2.8-.3 2.1.5 3.3.2.3.4.6.7.8-.3 0-.7 0-1.1.1-1.4.3-2.2 1.2-2.7 1.9.6.2 1 .6 1 .6s-.2.5-.7 1c.7.4 1.9.9 3.3.6.4-.1.7-.2 1-.4-.1.3-.2.7-.2 1.1-.1 1.4.5 2.5 1 3.1.4-.5.9-.8.9-.8s.5.3.7.9c.6-.6 1.4-1.5 1.5-2.9 0-.4 0-.7-.1-1.1l.9.6c1.4.6 2.6.4 3.4.1z" fill="url(#SVGID_00000086685233362167521140000000003474158623790208_)"/><radialGradient id="SVGID_00000142859393902219066050000014038395332378193036_" cx="1520.053" cy="-1152.581" r="33.866" gradientTransform="matrix(.2 0 0 -.2 -256.024 -192.021)" gradientUnits="userSpaceOnUse"><stop offset="0" stop-color="#e393af"/><stop offset=".793" stop-color="#fff"/></radialGradient><path d="M54.7 37.3c-.6-.1-1.1-.5-1.1-.5s.1-.6.6-1c-.8-.4-2-.7-3.3-.3-.4.1-.7.3-1 .5.1-.3.1-.7.1-1.1 0-1.4-.7-2.4-1.3-3-.3.6-.8.9-.8.9s-.5-.3-.8-.9c-.6.6-1.3 1.6-1.3 3 0 .4.1.7.1 1.1-.3-.2-.6-.4-1-.5-1.3-.4-2.5-.1-3.3.3.5.5.6 1 .6 1s-.4.4-1.1.5c.4.7 1.2 1.7 2.5 2.2.4.1.7.2 1.1.2-.3.2-.5.5-.8.8-.8 1.1-.9 2.4-.8 3.2.6-.3 1.2-.2 1.2-.2s.2.5.1 1.2c.8-.2 2-.6 2.8-1.7.2-.3.4-.6.5-1 .1.3.3.6.5 1 .8 1.1 2 1.6 2.8 1.7-.1-.6.1-1.2.1-1.2s.6 0 1.2.2c.1-.8.1-2.1-.8-3.2-.2-.3-.5-.6-.8-.8.3 0 .7-.1 1.1-.2 1.7-.5 2.5-1.5 2.9-2.2z" fill="url(#SVGID_00000142859393902219066050000014038395332378193036_)"/><radialGradient id="SVGID_00000165213172017826362120000017466381027745886366_" cx="2104.986" cy="-618.337" r="33.866" gradientTransform="matrix(.1948 .04549 .04549 -.1948 -350.842 -182.192)" gradientUnits="userSpaceOnUse"><stop offset="0" stop-color="#e393af"/><stop offset=".512" stop-color="#fff"/></radialGradient><path d="M37.8 34.3c-.6-.3-.9-.7-.9-.7s.3-.5.8-.9c-.7-.5-1.7-1.1-3.1-1-.4 0-.7.1-1.1.2.2-.3.3-.6.4-1 .3-1.4-.1-2.5-.6-3.3-.4.5-1 .7-1 .7s-.4-.4-.6-1c-.7.5-1.6 1.3-1.9 2.7-.1.4-.1.7-.1 1.1-.2-.2-.5-.5-.8-.7-1.2-.7-2.4-.7-3.3-.5.3.6.3 1.1.3 1.1s-.5.3-1.2.2c.2.8.7 1.9 1.9 2.7.3.2.7.3 1 .4-.3.1-.6.3-.9.6-1.1.9-1.4 2.1-1.5 3 .6-.1 1.2 0 1.2 0s.1.6-.2 1.2c.8 0 2.1-.1 3.1-1 .3-.3.5-.5.7-.8 0 .3.1.7.3 1 .5 1.3 1.6 2 2.4 2.3.1-.7.4-1.1.4-1.1s.6.1 1.1.5c.3-.8.5-2 0-3.3-.2-.4-.3-.7-.6-.9.3.1.7.1 1.1.1 1.6-.1 2.6-.9 3.1-1.6z" fill="url(#SVGID_00000165213172017826362120000017466381027745886366_)"/><radialGradient id="SVGID_00000007395320343553237300000011790289799409597351_" cx="1874.37" cy="-702.097" r="33.87" gradientTransform="scale(.2 -.2) rotate(-8.51 5350.147 11234.36)" gradientUnits="userSpaceOnUse"><stop offset="0" stop-color="#e393af"/><stop offset=".793" stop-color="#fff"/></radialGradient><path d="M36.1 11c-.6-.2-1-.6-1-.6s.2-.5.7-.9c-.7-.5-1.8-1-3.2-.8-.4.1-.7.2-1 .3.1-.3.2-.7.3-1 .2-1.4-.3-2.5-.8-3.2-.4.5-.9.8-.9.8s-.4-.4-.6-1c-.8.5-1.6 1.4-1.8 2.8-.1.4-.1.7 0 1.1-.3-.2-.5-.4-.9-.6-1.3-.6-2.5-.5-3.3-.2.3.5.4 1 .4 1s-.5.3-1.2.4c.3.8.9 1.9 2.2 2.5.3.2.7.3 1 .3-.3.2-.6.4-.9.7-1 1-1.2 2.2-1.2 3.1.6-.2 1.2-.1 1.2-.1s.1.6-.1 1.2c.8 0 2.1-.3 3-1.3.3-.3.5-.6.6-.9.1.3.2.7.4 1 .7 1.2 1.7 1.8 2.5 2.1 0-.7.3-1.1.3-1.1s.6 0 1.1.4c.2-.8.4-2-.3-3.3l-.6-.9h1.1c1.5-.2 2.4-1.1 3-1.8z" fill="url(#SVGID_00000007395320343553237300000011790289799409597351_)"/><radialGradient id="SVGID_00000065783716198035562480000017851200094728286092_" cx="-8.002" cy="-1544.596" r="33.875" gradientTransform="matrix(.1847 -.07683 -.07683 -.1847 -102.453 -265.031)" gradientUnits="userSpaceOnUse"><stop offset="0" stop-color="#e393af"/><stop offset=".512" stop-color="#fff"/></radialGradient><path d="M20.4 17.2c-.6.1-1.2 0-1.2 0s-.1-.6.2-1.2c-.8 0-2.1.1-3.1 1-.3.3-.5.5-.7.8 0-.3-.1-.7-.3-1-.5-1.3-1.6-2-2.3-2.3-.1.7-.4 1.1-.4 1.1s-.6-.2-1.1-.6c-.3.8-.5 2 0 3.3.1.4.3.7.5.9-.3-.1-.7-.1-1.1-.1-1.4.1-2.4.9-2.9 1.5.6.3.9.7.9.7s-.3.5-.8.9c.7.5 1.7 1.1 3.1 1 .4 0 .7-.1 1.1-.2-.2.3-.3.6-.4 1-.3 1.4.1 2.5.5 3.3.4-.5 1-.7 1-.7s.4.4.6 1c.7-.5 1.6-1.3 1.9-2.7.1-.4.1-.7.1-1.1.2.2.5.5.8.7 1.2.7 2.4.7 3.3.5-.3-.6-.3-1.1-.3-1.1s.5-.3 1.2-.2c-.2-.8-.7-1.9-1.9-2.7-.3-.2-.7-.3-1-.4.3-.1.6-.3.9-.6 1-.8 1.4-2 1.4-2.8z" fill="url(#SVGID_00000065783716198035562480000017851200094728286092_)"/><radialGradient id="SVGID_00000046332804593146182880000003067382205803400625_" cx="1369.55" cy="-1177.556" r="33.866" gradientTransform="matrix(.2 0 0 -.2 -256.024 -192.021)" gradientUnits="userSpaceOnUse"><stop offset="0" stop-color="#e393af"/><stop offset=".793" stop-color="#fff"/></radialGradient><path d="M24.6 42.2c-.6-.1-1.1-.5-1.1-.5s.1-.6.6-1c-.8-.4-2-.7-3.3-.3-.4.1-.7.3-1 .5.1-.3.1-.7.1-1.1 0-1.4-.7-2.4-1.3-3-.3.6-.8.9-.8.9s-.5-.3-.8-.9c-.6.6-1.3 1.6-1.3 3 0 .4.1.7.1 1.1-.3-.2-.6-.4-1-.5-1.3-.4-2.5-.1-3.3.3.5.5.6 1 .6 1s-.4.4-1.1.5c.4.7 1.2 1.7 2.5 2.2.4.1.7.2 1.1.2-.3.2-.5.5-.8.8-.8 1.1-.9 2.4-.8 3.2.6-.3 1.2-.2 1.2-.2s.2.5.1 1.2c.8-.2 2-.6 2.8-1.7.2-.3.4-.6.5-1 .1.3.3.6.5 1 .8 1.1 2 1.6 2.8 1.7-.1-.6.1-1.2.1-1.2s.6 0 1.2.2c.1-.8.1-2.1-.8-3.2-.2-.3-.5-.6-.8-.8.3 0 .7-.1 1.1-.2 1.7-.4 2.5-1.4 2.9-2.2z" fill="url(#SVGID_00000046332804593146182880000003067382205803400625_)"/></svg>