<svg xmlns="http://www.w3.org/2000/svg" width="60" height="60"><path d="M24.4 9.4c1.3-.4 3-.7 4.9-.7 2 0 3.8.2 5.3.7 1.5.4 2.8 1 3.9 1.8s1.8 1.6 2.4 2.6c.5 1 .8 2.1.8 3.2 0 1.5-.4 2.8-1.1 4.1-.7 1.2-1.6 2.4-2.7 3.4-1.1 1.1-2.3 2.1-3.6 3s-2.5 1.9-3.6 2.8-2 1.9-2.7 2.8c-.7 1-1.1 2-1.1 3.1 0 .8.4 1.7 1.1 2.5s1.8 1.2 3.2 1.2c.7 0 1.2-.1 1.7-.2s.9-.3 1.1-.3l.5.3c-.2.2-.4.5-.6.8-.2.3-.3.7-.4.9-.8.2-1.8.3-2.9.3-.7 0-1.5-.1-2.5-.4-1-.3-2-.7-3-1.2-.9-.5-1.8-1.3-2.4-2.1-.7-.9-1-2-1-3.3 0-1.4.3-2.7 1-3.8.7-1.2 1.6-2.2 2.7-3.2s2.2-1.9 3.5-2.8c1.2-.9 2.4-1.8 3.5-2.7 1.1-.9 2-1.9 2.7-2.8.7-1 1-2.1 1-3.2 0-.8-.2-1.6-.6-2.2-.4-.6-1-1.2-1.6-1.6-.7-.4-1.4-.8-2.3-1-.9-.2-1.7-.3-2.6-.3-1.5 0-2.9.3-4.2.8-1.3.6-2.4 1.3-3.4 2.1l-.5-3.2c.9-.5 2.1-1 3.5-1.4zm2.8 37.7c.7-.7 1.6-1.1 2.5-1.1 1 0 1.8.4 2.5 1.1.7.7 1.1 1.5 1.1 2.5s-.4 1.8-1.1 2.4c-.7.6-1.6 1-2.5 1-1 0-1.8-.3-2.5-1-.7-.6-1.1-1.5-1.1-2.4 0-.9.4-1.8 1.1-2.5z" fill="#fff"/></svg>