<svg version="1.1" id="レイヤー_2_00000077315395963502502060000017195015512316228282_" xmlns="http://www.w3.org/2000/svg" x="0" y="0" width="60" height="60" xml:space="preserve"><style/><radialGradient id="SVGID_1_" cx="138.987" cy="171.17" r="15.674" gradientTransform="scale(-1 1) rotate(56.928 172.787 -50.707)" gradientUnits="userSpaceOnUse"><stop offset="0" stop-color="#fff"/><stop offset="1" stop-color="#e393af"/></radialGradient><path d="M42.4 53.4c-1-.3-1.6-1.3-1.8-2.1 1.4-.1 2.7-.3 3.9-.8-1.7-2.8-3.3-6.3-6.2-8-1.4-.7-4.7-1.3-6.9-.1.8 2 2.1 8.3 5 10.2.9.4 1.8.8 2.7 1 1.2.1 2.2 0 3.3-.2z" fill="url(#SVGID_1_)"/><radialGradient id="SVGID_00000155851572268035312970000005644614289270445490_" cx="179.054" cy="322.189" r="10.05" gradientTransform="scale(-1 1) rotate(-5.02 -3072.89 2493.638)" gradientUnits="userSpaceOnUse"><stop offset="0" stop-color="#fff"/><stop offset="1" stop-color="#f0b4c8"/></radialGradient><path d="M19.6 55.3c-.2-.5-.5-1.6.2-1.9.4 1.1 1.3 1.8 2.1 2.5 0-1.8 1.8-2.6 2.7-3.9 1.4-1.9.7-4.7-1.2-6-.1 1.1-1.2 1.7-2.1 2.1-1.4.7-2.6 1.7-2.8 3.3-.1.6-.2 1.1 0 1.7.1.5.3.9.6 1.5.1.3.4.5.5.7z" fill="url(#SVGID_00000155851572268035312970000005644614289270445490_)"/><radialGradient id="SVGID_00000131338369731096167110000004725850502113744282_" cx="-804.729" cy="965.182" r="13.799" gradientTransform="scale(-1 1) rotate(-18.948 -3202.713 -1854.305)" gradientUnits="userSpaceOnUse"><stop offset="0" stop-color="#dfff8a"/><stop offset="1" stop-color="#84bd4d"/></radialGradient><path d="M20.1 24.2c1.6-.7 3.9-.9 4.4-2.9.9.8 1.4 2 1.7 3.2 0 .3 0 .7.1 1 0 1.6-.7 3.1-1.9 4.1-.3.2-.6.5-.9.6-1.8 1-4.7.9-5.3 3.2-.9-.8-1.4-2-1.7-3.2 0-.3 0-.7-.1-1 0-1.6.7-3.1 1.9-4.1.3-.2.5-.4.9-.6l.9-.3z" fill="url(#SVGID_00000131338369731096167110000004725850502113744282_)"/><radialGradient id="SVGID_00000118366455260528869350000014800303267053993601_" cx="-1358.438" cy="-496.803" r="18.088" gradientTransform="matrix(-.1434 -.9897 -.8904 .129 -628.068 -1258.121)" gradientUnits="userSpaceOnUse"><stop offset="0" stop-color="#fff"/><stop offset="1" stop-color="#e393af"/></radialGradient><path d="M8.8 20.4c1.5.5 2.4 1.6 2.4 1.6s-.6 1.2-1.8 2.2c1.7 1.2 4.3 2.5 7.6 2 5.7-.8 8.1-6.2 8.1-6.2s-3.8-4.4-9.5-3.6c-3.3.4-5.5 2.4-6.8 4z" fill="url(#SVGID_00000118366455260528869350000014800303267053993601_)"/><radialGradient id="SVGID_00000129887594369274303170000007225635460639833737_" cx="-152.532" cy="-1157.655" r="18.053" gradientTransform="matrix(.8969 -.4422 -.3979 -.8069 -305.877 -996.154)" gradientUnits="userSpaceOnUse"><stop offset=".006" stop-color="#fccadb"/><stop offset="1" stop-color="#e35c88"/></radialGradient><path d="M19.6 4.6c0 1.6-.8 2.7-.8 2.7s-1.4-.1-2.6-1.1c-.6 1.9-1 4.9.5 7.9 2.6 5.2 8.4 5.8 8.4 5.8s3.1-5 .5-10.2c-1.5-3-4.1-4.4-6-5.1z" fill="url(#SVGID_00000129887594369274303170000007225635460639833737_)"/><radialGradient id="SVGID_00000031927555495064899070000016134089743509961379_" cx="786.076" cy="-162.263" r="18.087" gradientTransform="matrix(.6977 .7164 .6445 -.6277 -407.19 -656.365)" gradientUnits="userSpaceOnUse"><stop offset="0" stop-color="#fff"/><stop offset="1" stop-color="#f0ccd8"/></radialGradient><path d="M38 10c-1.5.4-2.8.1-2.8.1s-.3-1.3.2-2.8c-2 0-4.9.5-7.3 2.9-4.2 4-2.9 9.7-2.9 9.7s5.7 1.4 9.8-2.7c2.3-2.3 2.9-5.2 3-7.2z" fill="url(#SVGID_00000031927555495064899070000016134089743509961379_)"/><radialGradient id="SVGID_00000049192175052904278570000001649885729878376620_" cx="281.131" cy="1084.254" r="18.085" gradientTransform="matrix(-.4657 .8849 .7962 .419 -692.956 -675.626)" gradientUnits="userSpaceOnUse"><stop offset="0" stop-color="#fff"/><stop offset="1" stop-color="#e393af"/></radialGradient><path d="M38.5 29.1c-.9-1.3-1-2.7-1-2.7s1.2-.7 2.7-.7c-.6-1.9-2-4.5-5-6.1-5.1-2.7-10.2.2-10.2.2s.4 5.8 5.6 8.5c3 1.7 6 1.4 7.9.8z" fill="url(#SVGID_00000049192175052904278570000001649885729878376620_)"/><radialGradient id="SVGID_00000094579979701035077750000007402432419034613381_" cx="-1256.7" cy="463.445" r="16.091" gradientTransform="matrix(-.6688 -.7434 -.6689 .6017 -521.568 -1167.714)" gradientUnits="userSpaceOnUse"><stop offset="0" stop-color="#fff"/><stop offset="1" stop-color="#f0b4c8"/></radialGradient><path d="M7.8 44.1c1.4-.3 2.5 0 2.5 0s.2 1.2-.3 2.5c1.8.1 4.4-.3 6.6-2.3 3.8-3.5 2.9-8.6 2.9-8.6s-5-1.4-8.8 2c-2.1 2.1-2.8 4.6-2.9 6.4z" fill="url(#SVGID_00000094579979701035077750000007402432419034613381_)"/><radialGradient id="SVGID_00000152980365389830185040000007936689915923518866_" cx="-248.695" cy="242.987" r="11.938" gradientTransform="matrix(-.9873 .1586 .1427 .8883 -247.072 -139.655)" gradientUnits="userSpaceOnUse"><stop offset="0" stop-color="#fff"/><stop offset="1" stop-color="#f0b4c8"/></radialGradient><path d="M31.9 36.9c.3-1 1-1.6 1-1.6s.8.3 1.4 1.2c.8-1.1 1.6-2.9 1.2-5.1-.6-3.8-4.2-5.3-4.2-5.3s-2.9 2.5-2.3 6.3c.5 2.3 1.8 3.7 2.9 4.5z" fill="url(#SVGID_00000152980365389830185040000007936689915923518866_)"/><radialGradient id="SVGID_00000053519759099669504240000011140395325522451360_" cx="-447.631" cy="162.89" r="11.953" gradientTransform="matrix(-.456 -.89 -.8007 .4102 -51.747 -434.13)" gradientUnits="userSpaceOnUse"><stop offset="0" stop-color="#fff"/><stop offset="1" stop-color="#f0ccd8"/></radialGradient><path d="M21.4 30c1 0 1.8.5 1.8.5s-.1.9-.7 1.7c1.3.4 3.2.6 5.2-.4 3.4-1.7 3.7-5.6 3.7-5.6s-3.3-2-6.7-.2c-1.9 1-2.9 2.7-3.3 4z" fill="url(#SVGID_00000053519759099669504240000011140395325522451360_)"/><radialGradient id="SVGID_00000049903220095437927390000013581666885520397474_" cx="-384.423" cy="-123.806" r="11.936" gradientTransform="matrix(.7055 -.7087 -.6376 -.6348 216.152 -332.356)" gradientUnits="userSpaceOnUse"><stop offset="0" stop-color="#fff"/><stop offset="1" stop-color="#f0b4c8"/></radialGradient><path d="M24.8 17.8c.3 1 .1 1.9.1 1.9s-.9.2-1.9-.1c0 1.3.4 3.3 2 4.8 2.7 2.7 6.5 1.8 6.5 1.8s.9-3.7-1.9-6.5c-1.6-1.5-3.5-1.9-4.8-1.9z" fill="url(#SVGID_00000049903220095437927390000013581666885520397474_)"/><radialGradient id="SVGID_00000124153256008900455820000009870624074182961803_" cx="-121.358" cy="-285.025" r="11.938" gradientTransform="matrix(.892 .452 .4067 -.8025 260.441 -157.193)" gradientUnits="userSpaceOnUse"><stop offset="0" stop-color="#fff"/><stop offset="1" stop-color="#e393af"/></radialGradient><path d="M37.4 17.2c-.8.6-1.7.7-1.7.7s-.5-.8-.5-1.8c-1.3.4-3 1.4-4 3.4-1.7 3.4.3 6.7.3 6.7s3.8-.3 5.6-3.8c.9-1.9.7-3.9.3-5.2z" fill="url(#SVGID_00000124153256008900455820000009870624074182961803_)"/><radialGradient id="SVGID_00000022543104582906495500000006496257670135785613_" cx="-405.341" cy="146.621" r="18.087" gradientTransform="matrix(-.9775 -.2107 .1896 -.8795 -382.083 50.662)" gradientUnits="userSpaceOnUse"><stop offset="0" stop-color="#fff"/><stop offset="1" stop-color="#f0b4c8"/></radialGradient><path d="M40.1 6.7c.4 1.5 1.4 2.5 1.4 2.5s1.3-.5 2.3-1.7c1.1 1.7 2.2 4.5 1.5 7.8-1.2 5.7-6.7 7.7-6.7 7.7s-4.2-4.1-3-9.7c.7-3.4 2.8-5.4 4.5-6.6z" fill="url(#SVGID_00000022543104582906495500000006496257670135785613_)"/><radialGradient id="SVGID_00000006694229606649483790000014019894228809916602_" cx="-408.411" cy="47.981" r="18.087" gradientTransform="matrix(-.5025 .8646 -.7778 -.4521 -143.361 389.601)" gradientUnits="userSpaceOnUse"><stop offset="0" stop-color="#fff"/><stop offset="1" stop-color="#f0b4c8"/></radialGradient><path d="M23.6 16.4c1.6.1 2.8-.6 2.8-.6s0-1.4-.9-2.7c2-.5 4.9-.7 7.8 1 5 2.9 5.2 8.7 5.2 8.7s-5.2 2.7-10.2-.2c-2.9-1.6-4.1-4.2-4.7-6.2z" fill="url(#SVGID_00000006694229606649483790000014019894228809916602_)"/><radialGradient id="SVGID_00000048502740017859510470000004489620551154196642_" cx="-149.512" cy="-58.35" r="18.086" gradientTransform="matrix(.9147 -.4041 .3636 .823 203.039 25.322)" gradientUnits="userSpaceOnUse"><stop offset="0" stop-color="#fff"/><stop offset="1" stop-color="#f0b4c8"/></radialGradient><path d="M46.8 37c-1.2-1-2.6-1.2-2.6-1.2s-.8 1.1-.9 2.7c-1.9-.8-4.4-2.3-5.7-5.4-2.3-5.3.9-10.1.9-10.1s5.8.8 8.1 6.1c1.4 3 .9 6 .2 7.9z" fill="url(#SVGID_00000048502740017859510470000004489620551154196642_)"/><radialGradient id="SVGID_00000176727150741646536230000000313304934150015662_" cx="-98.768" cy="-13.068" r="18.087" gradientTransform="matrix(-.1016 -.9948 .895 -.0915 56.279 -78.17)" gradientUnits="userSpaceOnUse"><stop offset="0" stop-color="#fff"/><stop offset="1" stop-color="#e393af"/></radialGradient><path d="M54.4 19.4c-1.3.9-1.9 2.1-1.9 2.1s.8 1.1 2.3 1.7c-1.3 1.5-3.6 3.4-6.9 3.8-5.8.6-9.3-4-9.3-4s2.6-5.2 8.3-5.8c3.3-.4 5.9 1 7.5 2.2z" fill="url(#SVGID_00000176727150741646536230000000313304934150015662_)"/></svg>