<svg version="1.1" id="レイヤー_2_00000077315395963502502060000017195015512316228282_" xmlns="http://www.w3.org/2000/svg" x="0" y="0" width="60" height="60" xml:space="preserve"><style/><radialGradient id="SVGID_1_" cx="-961.442" cy="-991.724" r="14.548" gradientTransform="matrix(.7193 .6947 -.625 .6472 96.015 1333.092)" gradientUnits="userSpaceOnUse"><stop offset="0" stop-color="#fff"/><stop offset="1" stop-color="#e393af"/></radialGradient><path d="M25.4 24.4c.4-1.2.1-2.3.1-2.3s-1.1-.2-2.3.2c0-1.6.4-4 2.3-5.9 3.2-3.4 7.8-2.4 7.8-2.4s1.1 4.5-2.1 7.9c-1.9 1.9-4.2 2.4-5.8 2.5z" fill="url(#SVGID_1_)"/><radialGradient id="SVGID_00000129916386310927877940000015209206613196769178_" cx="391.084" cy="-892.344" r="14.548" gradientTransform="matrix(.8829 -.4695 .4224 .7944 71.06 917.954)" gradientUnits="userSpaceOnUse"><stop offset=".006" stop-color="#fccadb"/><stop offset="1" stop-color="#e35c88"/></radialGradient><path d="M40.8 24.8c-1-.7-2.1-.8-2.1-.8s-.5.9-.5 2.2c-1.5-.5-3.6-1.6-4.9-4-2.3-4.2 0-8.2 0-8.2s4.7.3 6.9 4.4c1.3 2.4 1 4.8.6 6.4z" fill="url(#SVGID_00000129916386310927877940000015209206613196769178_)"/><radialGradient id="SVGID_00000119831530832221706310000002738419104629401777_" cx="724.296" cy="489.939" r="14.548" gradientTransform="matrix(-.1736 -.9848 .886 -.1562 -262.224 801.533)" gradientUnits="userSpaceOnUse"><stop offset="0" stop-color="#fff"/><stop offset="1" stop-color="#f0ccd8"/></radialGradient><path d="M45.9 10.2c-1 .8-1.4 1.8-1.4 1.8s.7.8 1.9 1.2c-1 1.3-2.7 3-5.3 3.4-4.6.8-7.7-2.7-7.7-2.7s1.8-4.3 6.4-5.2c2.5-.3 4.7.6 6.1 1.5z" fill="url(#SVGID_00000119831530832221706310000002738419104629401777_)"/><radialGradient id="SVGID_00000000916111149211545770000009068302316184661147_" cx="-300.408" cy="1217.531" r="14.548" gradientTransform="matrix(-.9903 -.1392 .1252 -.8909 -414.805 1043.976)" gradientUnits="userSpaceOnUse"><stop offset="0" stop-color="#fff"/><stop offset="1" stop-color="#e393af"/></radialGradient><path d="M33.6.9c.4 1.2 1.3 1.9 1.3 1.9s1-.4 1.7-1.5c.9 1.3 2 3.5 1.6 6.1-.6 4.6-4.9 6.5-4.9 6.5s-3.6-3-2.9-7.6c.3-2.6 1.9-4.4 3.2-5.4z" fill="url(#SVGID_00000000916111149211545770000009068302316184661147_)"/><radialGradient id="SVGID_00000075163784690670385100000015089864221115028373_" cx="-1241.879" cy="220.401" r="14.548" gradientTransform="matrix(-.4384 .8988 -.8086 -.3944 -344.601 1211.401)" gradientUnits="userSpaceOnUse"><stop offset="0" stop-color="#fff"/><stop offset="1" stop-color="#f0b4c8"/></radialGradient><path d="M21 9.6c1.3 0 2.2-.6 2.2-.6s-.2-1.1-.9-2.1c1.6-.5 3.9-.8 6.3.4 4.2 2 4.7 6.7 4.7 6.7s-4 2.5-8.2.4c-2.4-1.2-3.6-3.2-4.1-4.8z" fill="url(#SVGID_00000075163784690670385100000015089864221115028373_)"/><radialGradient id="SVGID_00000138563831692837871960000012269773933633694907_" cx="-1296.924" cy="-706.617" r="13.02" gradientTransform="matrix(-.809 -.5878 .5288 -.7279 -625.04 -1244.269)" gradientUnits="userSpaceOnUse"><stop offset="0" stop-color="#fff"/><stop offset="1" stop-color="#e393af"/></radialGradient><path d="M49.4 31.6c-.2 1.1.2 2 .2 2s1 .1 2-.4c.2 1.4.1 3.6-1.3 5.5-2.5 3.4-6.6 3.1-6.6 3.1s-1.6-3.9.9-7.3c1.4-1.9 3.4-2.6 4.8-2.9z" fill="url(#SVGID_00000138563831692837871960000012269773933633694907_)"/><radialGradient id="SVGID_00000160873042212917241810000003958335738491074745_" cx="41.456" cy="-1160.863" r="13.02" gradientTransform="matrix(-.809 .5878 -.5288 -.7279 -543.5 -836.95)" gradientUnits="userSpaceOnUse"><stop offset=".006" stop-color="#fccadb"/><stop offset="1" stop-color="#e35c88"/></radialGradient><path d="M35.7 33.2c1 .5 2 .4 2 .4s.4-.9.2-2c1.4.3 3.4 1 4.9 2.9 2.5 3.4.9 7.3.9 7.3s-4.2.3-6.6-3.1c-1.5-1.9-1.6-4-1.4-5.5z" fill="url(#SVGID_00000160873042212917241810000003958335738491074745_)"/><radialGradient id="SVGID_00000022523031655796271500000011471160711115631002_" cx="844.03" cy="37.925" r="13.02" gradientTransform="matrix(.309 .9511 -.8557 .278 -195.757 -767.874)" gradientUnits="userSpaceOnUse"><stop offset="0" stop-color="#fff"/><stop offset="1" stop-color="#f0ccd8"/></radialGradient><path d="M33 46.7c.8-.8 1-1.8 1-1.8s-.8-.6-1.9-.8c.7-1.3 2-3 4.3-3.7 4-1.3 7.2 1.4 7.2 1.4s-1 4.1-5 5.4c-2.2.7-4.3.1-5.6-.5z" fill="url(#SVGID_00000022523031655796271500000011471160711115631002_)"/><radialGradient id="SVGID_00000010291924075339884090000012554000210794769824_" cx="123.099" cy="1204.305" r="13.02" gradientTransform="matrix(1 0 0 .8997 -79.43 -1030.042)" gradientUnits="userSpaceOnUse"><stop offset="0" stop-color="#fff"/><stop offset="1" stop-color="#e393af"/></radialGradient><path d="M45 53.5c-.5-1-1.4-1.5-1.4-1.5s-.8.5-1.4 1.5c-1-1.1-2.2-2.8-2.2-5.2 0-4.2 3.6-6.4 3.6-6.4s3.6 2.2 3.6 6.4c0 2.4-1.2 4.1-2.2 5.2z" fill="url(#SVGID_00000010291924075339884090000012554000210794769824_)"/><radialGradient id="SVGID_00000165230442112746261740000000396257551692200336_" cx="-1100.299" cy="663.57" r="13.02" gradientTransform="matrix(.309 -.9511 .8557 .278 -173.082 -1185.54)" gradientUnits="userSpaceOnUse"><stop offset="0" stop-color="#fff"/><stop offset="1" stop-color="#f0b4c8"/></radialGradient><path d="M55.2 44.1c-1.1.2-1.9.8-1.9.8s.2 1 1 1.8c-1.3.6-3.4 1.2-5.7.5-4-1.3-5-5.4-5-5.4s3.2-2.7 7.2-1.4c2.4.8 3.7 2.5 4.4 3.7z" fill="url(#SVGID_00000165230442112746261740000000396257551692200336_)"/><radialGradient id="SVGID_00000055707298521747577930000004541583542142012572_" cx="-322.287" cy="-449.005" r="10.069" gradientTransform="matrix(.809 .5878 .5288 -.7279 516.585 -104.154)" gradientUnits="userSpaceOnUse"><stop offset="0" stop-color="#fff"/><stop offset="1" stop-color="#f0b4c8"/></radialGradient><path d="M19.3 33.9c-.8.4-1.5.3-1.5.3s-.3-.7-.2-1.6c-1.1.2-2.7.8-3.8 2.3-1.9 2.6-.7 5.6-.7 5.6s3.2.2 5.1-2.4c1.2-1.5 1.2-3.1 1.1-4.2z" fill="url(#SVGID_00000055707298521747577930000004541583542142012572_)"/><radialGradient id="SVGID_00000018949768867327650100000008936352935546301365_" cx="120.011" cy="-52.627" r="10.068" gradientTransform="matrix(-.309 .9511 .8557 .278 103.808 -56.21)" gradientUnits="userSpaceOnUse"><stop offset="0" stop-color="#fff"/><stop offset="1" stop-color="#f0b4c8"/></radialGradient><path d="M21.4 44.3c-.6-.6-.8-1.4-.8-1.4s.6-.5 1.4-.6c-.5-1-1.5-2.3-3.3-2.9-3.1-1-5.6 1.1-5.6 1.1s.8 3.1 3.9 4.1c1.8.6 3.4.2 4.4-.3z" fill="url(#SVGID_00000018949768867327650100000008936352935546301365_)"/><radialGradient id="SVGID_00000176750575057897780090000012228593668839569833_" cx="-82.049" cy="461.789" r="10.068" gradientTransform="matrix(-1 0 0 .8997 -68.92 -365.948)" gradientUnits="userSpaceOnUse"><stop offset="0" stop-color="#fff"/><stop offset="1" stop-color="#f0ccd8"/></radialGradient><path d="M12.1 49.5c.4-.8 1-1.2 1-1.2s.6.4 1 1.2c.8-.8 1.7-2.2 1.7-4.1 0-3.2-2.8-4.9-2.8-4.9s-2.8 1.7-2.8 5c.2 1.8 1.1 3.2 1.9 4z" fill="url(#SVGID_00000176750575057897780090000012228593668839569833_)"/><radialGradient id="SVGID_00000036238161945080892040000015685024237150865284_" cx="-528.431" cy="354.155" r="10.069" gradientTransform="matrix(-.309 -.9511 -.8557 .278 144.331 -557.744)" gradientUnits="userSpaceOnUse"><stop offset="0" stop-color="#fff"/><stop offset="1" stop-color="#f0b4c8"/></radialGradient><path d="M4.2 42.3c.9.1 1.4.6 1.4.6s-.2.7-.8 1.4c1 .5 2.6.9 4.4.4 3.1-1 3.9-4.1 3.9-4.1s-2.5-2.1-5.6-1.1c-1.7.5-2.7 1.8-3.3 2.8z" fill="url(#SVGID_00000036238161945080892040000015685024237150865284_)"/><radialGradient id="SVGID_00000129891661460307670790000006135341650904347322_" cx="-575.857" cy="-290.641" r="10.069" gradientTransform="matrix(.809 -.5878 -.5288 -.7279 320.015 -516.81)" gradientUnits="userSpaceOnUse"><stop offset="0" stop-color="#fff"/><stop offset="1" stop-color="#e393af"/></radialGradient><path d="M8.7 32.6c.1.9-.2 1.6-.2 1.6s-.7 0-1.5-.3c-.1 1.1-.1 2.8 1 4.3 1.9 2.6 5.1 2.4 5.1 2.4s1.2-3-.7-5.6c-1.1-1.6-2.6-2.2-3.7-2.4z" fill="url(#SVGID_00000129891661460307670790000006135341650904347322_)"/><radialGradient id="SVGID_00000008142036461604158980000001688407443123286409_" cx="-539.253" cy="419.932" r="10.069" gradientTransform="matrix(-.809 .5878 .5288 .7279 -625.04 67.637)" gradientUnits="userSpaceOnUse"><stop offset="0" stop-color="#fff"/><stop offset="1" stop-color="#f0b4c8"/></radialGradient><path d="M32.4 56.9c-.1-.9.2-1.6.2-1.6s.8-.1 1.5.3c.1-1.1.1-2.8-1-4.3C31.2 48.8 28 49 28 49s-1.2 3 .7 5.6c1.1 1.6 2.6 2.1 3.7 2.3z" fill="url(#SVGID_00000008142036461604158980000001688407443123286409_)"/><radialGradient id="SVGID_00000067926073117812159190000001320744662466848442_" cx="-690.834" cy="-13.821" r="10.068" gradientTransform="matrix(-.809 -.5878 -.5288 .7279 -543.5 -339.68)" gradientUnits="userSpaceOnUse"><stop offset="0" stop-color="#fff"/><stop offset="1" stop-color="#f0b4c8"/></radialGradient><path d="M21.8 55.7c.8-.4 1.5-.3 1.5-.3s.3.7.2 1.6c1.1-.2 2.7-.8 3.8-2.3 1.9-2.6.7-5.7.7-5.7s-3.2-.2-5.1 2.4c-1.2 1.6-1.2 3.2-1.1 4.3z" fill="url(#SVGID_00000067926073117812159190000001320744662466848442_)"/><radialGradient id="SVGID_00000070823885316416504250000011066424934241068709_" cx="-366.257" cy="-383.723" r="10.068" gradientTransform="matrix(.309 -.9511 -.8557 -.278 -195.757 -408.757)" gradientUnits="userSpaceOnUse"><stop offset="0" stop-color="#fff"/><stop offset="1" stop-color="#f0ccd8"/></radialGradient><path d="M19.7 45.3c.6.6.8 1.4.8 1.4s-.6.5-1.4.6c.5 1 1.5 2.3 3.3 2.9 3.1 1 5.6-1.1 5.6-1.1s-.8-3.1-3.9-4.1c-1.8-.7-3.3-.2-4.4.3z" fill="url(#SVGID_00000070823885316416504250000011066424934241068709_)"/><radialGradient id="SVGID_00000015352518380496413200000011492213551034873776_" cx="107.414" cy="-207.439" r="10.069" gradientTransform="matrix(1 0 0 -.8997 -79.43 -146.589)" gradientUnits="userSpaceOnUse"><stop offset="0" stop-color="#fff"/><stop offset="1" stop-color="#f0b4c8"/></radialGradient><path d="M29 40c-.4.8-1 1.2-1 1.2s-.6-.4-1-1.2c-.8.8-1.7 2.2-1.7 4.1 0 3.2 2.8 4.9 2.8 4.9s2.8-1.7 2.8-5c-.2-1.8-1.1-3.1-1.9-4z" fill="url(#SVGID_00000015352518380496413200000011492213551034873776_)"/><radialGradient id="SVGID_00000116954118555005301160000015080243672274330277_" cx="100.298" cy="208.761" r="10.062" gradientTransform="matrix(.309 .9511 .8557 -.278 -173.082 8.91)" gradientUnits="userSpaceOnUse"><stop offset="0" stop-color="#fff"/><stop offset="1" stop-color="#e393af"/></radialGradient><path d="M36.9 47.3c-.9-.1-1.4-.6-1.4-.6s.2-.7.8-1.4c-1-.5-2.6-.9-4.4-.4-3.1 1-3.9 4.1-3.9 4.1s2.5 2.1 5.6 1.1c1.7-.5 2.7-1.8 3.3-2.8z" fill="url(#SVGID_00000116954118555005301160000015080243672274330277_)"/><path d="M7.3 13.4c1 .5 2 .4 2 .4s.4-.9.2-2.1c1.5.3 3.5 1 5 3 2.5 3.5.9 7.5.9 7.5s-4.3.3-6.8-3.2c-1.4-1.9-1.4-4.1-1.3-5.6z" fill="#7f2646" opacity=".1"/><radialGradient id="SVGID_00000106140138303276760150000007581348089098587524_" cx="-1224.093" cy="-992.006" r="13.364" gradientTransform="matrix(-.809 .5878 -.5288 -.7279 -1507.387 9.014)" gradientUnits="userSpaceOnUse"><stop offset="0" stop-color="#fff"/><stop offset="1" stop-color="#e393af"/></radialGradient><path d="M6.3 12.4c1 .5 2 .4 2 .4s.4-.9.2-2.1c1.5.3 3.5 1 5 3 2.5 3.5.9 7.5.9 7.5s-4.3.3-6.8-3.2c-1.4-1.9-1.4-4.1-1.3-5.6z" fill="url(#SVGID_00000106140138303276760150000007581348089098587524_)"/><radialGradient id="SVGID_00000182514383124470727890000015143378477364627079_" cx="308.716" cy="-1171.384" r="13.364" gradientTransform="matrix(.309 .9511 -.8557 .278 -1094.61 56.96)" gradientUnits="userSpaceOnUse"><stop offset="0" stop-color="#fff"/><stop offset="1" stop-color="#e393af"/></radialGradient><path d="M3.6 26.3c.8-.8 1.1-1.8 1.1-1.8s-.8-.6-1.9-.8c.7-1.3 2.1-3 4.4-3.8 4.1-1.3 7.4 1.4 7.4 1.4s-1 4.2-5.1 5.5c-2.5.7-4.6.1-5.9-.5z" fill="url(#SVGID_00000182514383124470727890000015143378477364627079_)"/><radialGradient id="SVGID_00000103233742425116006570000006865919523758906781_" cx="936.385" cy="317.853" r="13.366" gradientTransform="matrix(1 0 0 .8997 -921.885 -252.781)" gradientUnits="userSpaceOnUse"><stop offset="0" stop-color="#fff"/><stop offset="1" stop-color="#f0ccd8"/></radialGradient><path d="M15.9 33.2c-.5-1-1.4-1.6-1.4-1.6s-.9.5-1.4 1.6c-1-1.1-2.3-2.9-2.3-5.4 0-4.3 3.7-6.6 3.7-6.6s3.7 2.3 3.7 6.6c0 2.5-1.3 4.3-2.3 5.4z" fill="url(#SVGID_00000103233742425116006570000006865919523758906781_)"/><radialGradient id="SVGID_00000116222902769957739760000000895807733307885218_" cx="-87.802" cy="1388.488" r="13.363" gradientTransform="matrix(.309 -.9511 .8557 .278 -1135.133 -444.574)" gradientUnits="userSpaceOnUse"><stop offset="0" stop-color="#fff"/><stop offset="1" stop-color="#e393af"/></radialGradient><path d="M26.3 23.6c-1.1.2-1.9.8-1.9.8s.2 1 1.1 1.8c-1.3.6-3.4 1.3-5.8.5-4.1-1.3-5.1-5.5-5.1-5.5s3.3-2.8 7.4-1.4c2.2.8 3.6 2.5 4.3 3.8z" fill="url(#SVGID_00000116222902769957739760000000895807733307885218_)"/><radialGradient id="SVGID_00000140731973722123719570000013002221702508962226_" cx="-1321.971" cy="497.102" r="13.363" gradientTransform="matrix(-.809 -.5878 .5288 -.7279 -1310.817 -403.64)" gradientUnits="userSpaceOnUse"><stop offset="0" stop-color="#fff"/><stop offset="1" stop-color="#f0b4c8"/></radialGradient><path d="M20.4 10.8c-.2 1.1.2 2.1.2 2.1s1 .1 2-.4c.2 1.5.1 3.7-1.3 5.7-2.5 3.5-6.8 3.2-6.8 3.2s-1.6-4 .9-7.5c1.5-2.1 3.5-2.9 5-3.1z" fill="url(#SVGID_00000140731973722123719570000013002221702508962226_)"/><radialGradient id="SVGID_00000026122927869868542120000013854156872410286992_" cx="-943.256" cy="-1464.838" r="10.07" gradientTransform="matrix(.1736 .9848 -.886 .1562 -1095.103 1183.333)" gradientUnits="userSpaceOnUse"><stop offset="0" stop-color="#fff"/><stop offset="1" stop-color="#e393af"/></radialGradient><path d="M39.2 26.6c.7-.5 1-1.2 1-1.2s-.5-.6-1.3-.8c.7-.9 1.9-2.1 3.7-2.4C45.8 21.6 48 24 48 24s-1.2 3-4.4 3.6c-2 .3-3.5-.3-4.4-1z" fill="url(#SVGID_00000026122927869868542120000013854156872410286992_)"/><radialGradient id="SVGID_00000180327159279402568940000017724614181425172621_" cx="796.727" cy="-1023.518" r="10.07" gradientTransform="matrix(.9903 .1392 -.1252 .8909 -870.535 833.908)" gradientUnits="userSpaceOnUse"><stop offset=".006" stop-color="#fccadb"/><stop offset="1" stop-color="#e35c88"/></radialGradient><path d="M47.6 33.1c-.3-.8-.9-1.3-.9-1.3s-.7.3-1.2 1c-.7-.9-1.4-2.4-1.1-4.3.4-3.2 3.4-4.5 3.4-4.5s2.5 2.1 2 5.3c-.2 1.9-1.3 3.1-2.2 3.8z" fill="url(#SVGID_00000180327159279402568940000017724614181425172621_)"/><radialGradient id="SVGID_00000123407303841092756980000015157137843599661445_" cx="956.835" cy="876.366" r="10.068" gradientTransform="matrix(.4384 -.8988 .8086 .3944 -1072.153 542.355)" gradientUnits="userSpaceOnUse"><stop offset="0" stop-color="#fff"/><stop offset="1" stop-color="#f0ccd8"/></radialGradient><path d="M56.4 27c-.9 0-1.5.4-1.5.4s.1.8.6 1.5c-1.1.3-2.7.6-4.4-.2-2.9-1.4-3.2-4.6-3.2-4.6s2.8-1.7 5.7-.3c1.6.8 2.4 2.2 2.8 3.2z" fill="url(#SVGID_00000123407303841092756980000015157137843599661445_)"/><radialGradient id="SVGID_00000125601140404336778340000016925980362825312149_" cx="-562.572" cy="1580.098" r="10.068" gradientTransform="matrix(-.7193 -.6947 .625 -.6472 -1338.104 649.388)" gradientUnits="userSpaceOnUse"><stop offset="0" stop-color="#fff"/><stop offset="1" stop-color="#e393af"/></radialGradient><path d="M53.4 16.8c-.2.8-.1 1.6-.1 1.6s.7.2 1.6-.1c0 1.1-.3 2.8-1.6 4.1-2.3 2.3-5.4 1.6-5.4 1.6s-.8-3.1 1.5-5.5c1.2-1.3 2.8-1.6 4-1.7z" fill="url(#SVGID_00000125601140404336778340000016925980362825312149_)"/><radialGradient id="SVGID_00000178188843513389345400000005457505599058305212_" cx="-1636.266" cy="53.069" r="10.064" gradientTransform="matrix(-.8829 .4695 -.4224 -.7944 -1378.61 826.48)" gradientUnits="userSpaceOnUse"><stop offset="0" stop-color="#fff"/><stop offset="1" stop-color="#f0b4c8"/></radialGradient><path d="M42.7 16.6c.7.5 1.5.5 1.5.5s.4-.7.4-1.5c1.1.4 2.5 1.1 3.4 2.8 1.5 2.9-.1 5.7-.1 5.7s-3.2-.2-4.8-3.1c-.9-1.7-.7-3.3-.4-4.4z" fill="url(#SVGID_00000178188843513389345400000005457505599058305212_)"/><radialGradient id="SVGID_00000103257406008919517390000005773170122558081958_" cx="-951.934" cy="-976.13" r="12.404" gradientTransform="matrix(.7193 .6947 -.625 .6472 96.015 1333.092)" gradientUnits="userSpaceOnUse"><stop offset="0" stop-color="#fff"/><stop offset="1" stop-color="#e393af"/></radialGradient><path d="M22.3 40.9c.3-1 .1-1.9.1-1.9s-.9-.2-1.9.1c0-1.4.4-3.4 2-5 2.8-2.9 6.7-2 6.7-2s1 3.9-1.8 6.7c-1.7 1.7-3.7 2.1-5.1 2.1z" fill="url(#SVGID_00000103257406008919517390000005773170122558081958_)"/><radialGradient id="SVGID_00000151517899176997184160000009744321703970885764_" cx="378.854" cy="-878.947" r="12.404" gradientTransform="matrix(.8829 -.4695 .4224 .7944 71.06 917.954)" gradientUnits="userSpaceOnUse"><stop offset=".006" stop-color="#fccadb"/><stop offset="1" stop-color="#e35c88"/></radialGradient><path d="M35.4 41.2c-.9-.6-1.8-.7-1.8-.7s-.5.8-.5 1.9c-1.3-.4-3.1-1.3-4.2-3.4-1.9-3.5.1-7 .1-7s4 .3 5.9 3.8c1.1 2.1.9 4.1.5 5.4z" fill="url(#SVGID_00000151517899176997184160000009744321703970885764_)"/><radialGradient id="SVGID_00000163069059736680794920000016581393632352983196_" cx="707.229" cy="479.68" r="12.404" gradientTransform="matrix(-.1736 -.9848 .886 -.1562 -262.224 801.533)" gradientUnits="userSpaceOnUse"><stop offset="0" stop-color="#fff"/><stop offset="1" stop-color="#f0ccd8"/></radialGradient><path d="M39.8 28.9c-.8.7-1.2 1.5-1.2 1.5s.6.7 1.6 1c-.8 1.1-2.3 2.5-4.6 2.9C31.7 35 29 32 29 32s1.5-3.7 5.4-4.4c2.4-.3 4.2.5 5.4 1.3z" fill="url(#SVGID_00000163069059736680794920000016581393632352983196_)"/><radialGradient id="SVGID_00000062911753157823163890000011241489857555677335_" cx="-298.726" cy="1194.847" r="12.404" gradientTransform="matrix(-.9903 -.1392 .1252 -.8909 -414.805 1043.976)" gradientUnits="userSpaceOnUse"><stop offset="0" stop-color="#fff"/><stop offset="1" stop-color="#e393af"/></radialGradient><path d="M29.3 20.9c.4 1 1.1 1.6 1.1 1.6s.9-.4 1.5-1.3c.8 1.1 1.7 3 1.4 5.2-.6 3.9-4.2 5.6-4.2 5.6s-3.1-2.6-2.5-6.5c.3-2.2 1.6-3.7 2.7-4.6z" fill="url(#SVGID_00000062911753157823163890000011241489857555677335_)"/><radialGradient id="SVGID_00000152244068089846356870000016129180643390305977_" cx="-1223.774" cy="213.696" r="12.404" gradientTransform="matrix(-.4384 .8988 -.8086 -.3944 -344.601 1211.401)" gradientUnits="userSpaceOnUse"><stop offset="0" stop-color="#fff"/><stop offset="1" stop-color="#f0b4c8"/></radialGradient><path d="M18.5 28.4c1.1 0 1.9-.5 1.9-.5s-.1-.9-.7-1.8c1.3-.4 3.3-.7 5.4.3 3.6 1.7 4 5.7 4 5.7s-3.4 2.1-7 .4c-2.1-1.1-3.1-2.8-3.6-4.1z" fill="url(#SVGID_00000152244068089846356870000016129180643390305977_)"/></svg>